<?xml version="1.0" encoding="utf-8"?>
<!-- Generator: Adobe Illustrator 19.1.0, SVG Export Plug-In . SVG Version: 6.00 Build 0)  -->
<svg version="1.1" id="Layer_1" xmlns="http://www.w3.org/2000/svg" xmlns:xlink="http://www.w3.org/1999/xlink" x="0px" y="0px"
	 viewBox="0 0 595.3 841.9" style="enable-background:new 0 0 595.3 841.9;" xml:space="preserve">
<style type="text/css">
	.st0{fill:none;}
	.st1{fill:#4A4F54;}
	.st2{fill:#00A6BA;}
</style>
<g>
	<g>
		<path class="st0" d="M205.5,430.7v0.1c0,2.5,2,3.9,5,3.9c4.3,0,7.2-2.3,7.2-5.7v-1.6c-1.6-0.7-3.6-1.2-5.9-1.2
			C207.9,426.2,205.5,427.8,205.5,430.7z"/>
		<path class="st0" d="M267,414.9c-3.8,0-6.3,2.7-7,6.9h13.8C273.3,417.6,270.9,414.9,267,414.9z"/>
		<path class="st0" d="M353.4,424.4v-0.1c0-4.8-3.4-8.9-8.5-8.9c-5.3,0-8.4,4-8.4,8.8v0.1c0,4.8,3.4,8.9,8.5,8.9
			C350.2,433.3,353.4,429.2,353.4,424.4z"/>
		<path class="st1" d="M373.2,455.1c-9.7,0-18.5-4-24.8-10.5h-10.9c7.8,11.4,20.9,19,35.7,19c14.8,0,28-7.5,35.7-19H398
			C391.7,451.1,382.9,455.1,373.2,455.1z"/>
		<path class="st1" d="M373.2,385.7c12.9,0,24.2,7.1,30.2,17.6h9.5c-6.6-15.3-21.9-26.1-39.6-26.1c-17.7,0-33,10.8-39.6,26.1h9.5
			C349,392.8,360.3,385.7,373.2,385.7z"/>
		<path class="st1" d="M366.2,436.2H363v4.6h20.3v-4.6H380c-1.9,0-2.8-0.8-2.8-2.8v-25.1H363v4.6h3.2c1.9,0,2.8,0.8,2.8,2.8v17.8
			C369,435.4,368.2,436.2,366.2,436.2z"/>
		<path class="st1" d="M377.2,398.9c0-2.8-2.3-5-5-5c-2.7,0-5,2.2-5,5c0,2.8,2.3,5,5,5C374.9,403.9,377.2,401.7,377.2,398.9z"/>
		<path class="st2" d="M178.1,432.6c-7.2,0-12.2-6-12.2-13.3v-0.1c0-7.2,5.1-13.2,12.2-13.2c4.2,0,7.5,1.8,10.8,4.8l5.9-6.8
			c-3.9-3.9-8.7-6.5-16.7-6.5c-13,0-22,9.8-22,21.8v0.1c0,12.1,9.2,21.7,21.7,21.7c8.1,0,13-2.9,17.3-7.5l-5.9-6
			C185.9,430.7,183,432.6,178.1,432.6z"/>
		<path class="st2" d="M212,407.7c-5.5,0-9,1-12.6,2.6l2.3,7c3-1.1,5.4-1.8,8.9-1.8c4.6,0,6.9,2.1,6.9,5.9v0.5
			c-2.3-0.8-4.6-1.3-7.9-1.3c-7.7,0-13,3.3-13,10.3v0.1c0,6.4,5,9.9,11.1,9.9c4.5,0,7.5-1.6,9.8-4.1v3.5h8.9v-18.8
			c0-4.3-1.1-7.9-3.5-10.3C220.6,409.1,217,407.7,212,407.7z M217.7,429c0,3.3-2.9,5.7-7.2,5.7c-3,0-5-1.4-5-3.9v-0.1
			c0-2.9,2.4-4.5,6.3-4.5c2.2,0,4.3,0.5,5.9,1.2V429z"/>
		<path class="st2" d="M240.5,414.6v-6.5h-9.2v32.4h9.2v-12c0-7.7,3.7-11.4,9.8-11.4h0.5v-9.6C245.4,407.3,242.3,410.1,240.5,414.6z
			"/>
		<path class="st2" d="M267,407.5c-9.4,0-16,7.6-16,16.8v0.1c0,9.9,7.2,16.7,16.9,16.7c5.9,0,10.2-2.3,13.2-6l-5.3-4.6
			c-2.5,2.4-4.8,3.3-7.8,3.3c-4.1,0-7-2.2-7.9-6.3h22.5c0.1-0.8,0.1-1.7,0.1-2.4C282.8,415.9,277.8,407.5,267,407.5z M260,421.7
			c0.7-4.2,3.2-6.9,7-6.9c3.9,0,6.3,2.8,6.8,6.9H260z"/>
		<path class="st2" d="M362.4,424.3v-0.1c0-9.3-7.4-16.7-17.4-16.7c-10.1,0-17.6,7.5-17.6,16.8v0.1c0,9.3,7.4,16.7,17.4,16.7
			C354.9,441.2,362.4,433.6,362.4,424.3z M336.5,424.3v-0.1c0-4.8,3.1-8.8,8.4-8.8c5.1,0,8.5,4.2,8.5,8.9v0.1c0,4.8-3.1,8.8-8.4,8.8
			C339.9,433.3,336.5,429.1,336.5,424.3z"/>
		<path class="st2" d="M405.4,407.5c-4.6,0-7.4,2.5-9.5,5.2v-4.6h-9.2v32.4h9.2v-18c0-4.3,2.2-6.6,5.7-6.6c3.5,0,5.6,2.2,5.6,6.6v18
			h9.2v-20.9C416.4,412.1,412.4,407.5,405.4,407.5z"/>
		<path class="st2" d="M439.6,415.9v-7.8H432v-8.3h-9.2v8.3H419v7.8h3.9v15.3c0,7.5,3.8,9.7,9.4,9.7c3.1,0,5.3-0.7,7.2-1.9v-7.4
			c-1.3,0.7-2.8,1.1-4.5,1.1c-2.1,0-3-1-3-3.1v-13.8H439.6z"/>
		<g>
			<path class="st2" d="M310.4,419.6c4.7,0,7.5-2.8,7.5-6.5V413c0-4.2-2.9-6.5-7.7-6.5h-7.3v13.1H310.4z M293.5,398H311
				c10.2,0,16.4,6.1,16.4,14.8v0.1c0,9.9-7.7,15.1-17.3,15.1h-7.2v12.9h-9.4V398z"/>
		</g>
	</g>
	<g>
		<path class="st1" d="M161.6,450.9h1v8.5h-1V450.9z"/>
		<path class="st1" d="M164.5,453.1h0.9v1.1c0.4-0.7,1.1-1.2,2.1-1.2c1.5,0,2.4,1,2.4,2.5v3.9H169v-3.7c0-1.2-0.6-1.9-1.7-1.9
			c-1.1,0-1.9,0.8-1.9,2v3.6h-0.9V453.1z"/>
		<path class="st1" d="M171.9,454h-0.9v-0.8h0.9v-0.5c0-0.7,0.2-1.3,0.5-1.6c0.3-0.3,0.8-0.5,1.3-0.5c0.4,0,0.7,0,1,0.2v0.8
			c-0.3-0.1-0.6-0.2-0.9-0.2c-0.7,0-1.1,0.4-1.1,1.3v0.5h2v0.8h-2v5.4h-0.9V454z"/>
		<path class="st1" d="M175.2,456.3L175.2,456.3c0-1.8,1.4-3.3,3.3-3.3c1.9,0,3.3,1.5,3.3,3.2v0c0,1.8-1.4,3.3-3.3,3.3
			C176.5,459.5,175.2,458.1,175.2,456.3z M180.7,456.3L180.7,456.3c0-1.4-1-2.5-2.3-2.5c-1.4,0-2.3,1.1-2.3,2.4v0
			c0,1.3,1,2.4,2.3,2.4C179.8,458.7,180.7,457.6,180.7,456.3z"/>
		<path class="st1" d="M183,453.1h0.9v1.6c0.5-1,1.4-1.8,2.6-1.7v1h-0.1c-1.4,0-2.5,1-2.5,2.9v2.5H183V453.1z"/>
		<path class="st1" d="M187.5,453.1h0.9v1.1c0.4-0.6,1-1.2,2-1.2c1,0,1.7,0.5,2,1.2c0.4-0.7,1.1-1.2,2.2-1.2c1.4,0,2.3,1,2.3,2.5
			v3.9h-0.9v-3.7c0-1.2-0.6-1.9-1.6-1.9c-0.9,0-1.7,0.7-1.7,1.9v3.6h-0.9v-3.7c0-1.2-0.6-1.9-1.6-1.9c-1,0-1.7,0.8-1.7,2v3.6h-0.9
			V453.1z"/>
		<path class="st1" d="M198.2,457.6L198.2,457.6c0-1.4,1.1-2.1,2.7-2.1c0.8,0,1.4,0.1,1.9,0.3v-0.2c0-1.1-0.7-1.7-1.9-1.7
			c-0.7,0-1.3,0.2-1.9,0.4l-0.3-0.8c0.7-0.3,1.4-0.5,2.3-0.5c0.9,0,1.6,0.2,2,0.7c0.4,0.4,0.7,1,0.7,1.8v3.8h-0.9v-0.9
			c-0.4,0.6-1.1,1.1-2.3,1.1C199.4,459.5,198.2,458.9,198.2,457.6z M202.8,457.1v-0.6c-0.5-0.1-1.1-0.3-1.8-0.3
			c-1.2,0-1.8,0.5-1.8,1.3v0c0,0.8,0.7,1.2,1.6,1.2C201.9,458.8,202.8,458.1,202.8,457.1z"/>
		<path class="st1" d="M205.6,457.7V454h-0.9v-0.8h0.9v-1.9h0.9v1.9h2v0.8h-2v3.7c0,0.8,0.4,1,1.1,1c0.3,0,0.6-0.1,0.9-0.2v0.8
			c-0.3,0.2-0.7,0.3-1.1,0.3C206.3,459.5,205.6,459,205.6,457.7z"/>
		<path class="st1" d="M209.8,450.7h1.1v1h-1.1V450.7z M209.9,453.1h0.9v6.3h-0.9V453.1z"/>
		<path class="st1" d="M212.2,456.3L212.2,456.3c0-1.8,1.4-3.3,3.3-3.3c1.9,0,3.3,1.5,3.3,3.2v0c0,1.8-1.4,3.3-3.3,3.3
			C213.6,459.5,212.2,458.1,212.2,456.3z M217.8,456.3L217.8,456.3c0-1.4-1-2.5-2.3-2.5c-1.4,0-2.3,1.1-2.3,2.4v0
			c0,1.3,1,2.4,2.3,2.4C216.8,458.7,217.8,457.6,217.8,456.3z"/>
		<path class="st1" d="M220,453.1h0.9v1.1c0.4-0.7,1.1-1.2,2.1-1.2c1.5,0,2.4,1,2.4,2.5v3.9h-0.9v-3.7c0-1.2-0.6-1.9-1.7-1.9
			c-1.1,0-1.9,0.8-1.9,2v3.6H220V453.1z"/>
		<path class="st1" d="M235.3,458.2c-0.8,0.8-1.7,1.3-2.8,1.3c-1.5,0-2.7-1-2.7-2.4v0c0-1.1,0.8-1.9,2-2.4c-0.6-0.7-0.8-1.2-0.8-1.9
			v0c0-1.1,0.9-2,2.2-2c1.2,0,2.1,0.9,2.1,1.9v0c0,1.1-0.8,1.8-2,2.2l1.9,2c0.4-0.5,0.7-1.2,1-1.9l0.8,0.4c-0.4,0.8-0.8,1.5-1.2,2.1
			l1.5,1.5l-0.7,0.6L235.3,458.2z M234.8,457.6l-2.3-2.3c-1.1,0.4-1.6,1.1-1.6,1.8v0c0,0.9,0.7,1.6,1.8,1.6
			C233.4,458.7,234.1,458.3,234.8,457.6z M234.5,452.8L234.5,452.8c0-0.7-0.5-1.2-1.2-1.2c-0.8,0-1.3,0.5-1.3,1.2v0
			c0,0.5,0.2,0.9,0.8,1.6C233.9,454,234.5,453.5,234.5,452.8z"/>
		<path class="st1" d="M241.6,460.5l0.4-0.7c0.7,0.5,1.5,0.8,2.4,0.8c1.4,0,2.3-0.8,2.3-2.2v-0.7c-0.5,0.7-1.3,1.3-2.5,1.3
			c-1.5,0-2.9-1.1-2.9-2.9v0c0-1.8,1.5-3,2.9-3c1.2,0,1.9,0.6,2.4,1.3v-1.1h0.9v5.2c0,1-0.3,1.7-0.8,2.2c-0.6,0.6-1.4,0.8-2.4,0.8
			C243.4,461.3,242.5,461.1,241.6,460.5z M246.8,456L246.8,456c0-1.3-1.1-2.1-2.3-2.1c-1.2,0-2.2,0.8-2.2,2.1v0c0,1.3,1,2.1,2.2,2.1
			C245.7,458.1,246.8,457.2,246.8,456z"/>
		<path class="st1" d="M249.3,457v-3.9h0.9v3.7c0,1.2,0.6,1.9,1.7,1.9c1.1,0,1.9-0.8,1.9-2v-3.6h0.9v6.3h-0.9v-1.1
			c-0.4,0.7-1.1,1.2-2.1,1.2C250.2,459.5,249.3,458.5,249.3,457z"/>
		<path class="st1" d="M256.5,450.7h1.1v1h-1.1V450.7z M256.6,453.1h0.9v6.3h-0.9V453.1z"/>
		<path class="st1" d="M258.9,456.3L258.9,456.3c0-2.1,1.5-3.3,3-3.3c1.2,0,1.9,0.6,2.4,1.3v-3.8h0.9v8.8h-0.9v-1.3
			c-0.5,0.8-1.2,1.4-2.4,1.4C260.4,459.5,258.9,458.3,258.9,456.3z M264.4,456.3L264.4,456.3c0-1.5-1.1-2.4-2.3-2.4
			c-1.2,0-2.2,0.9-2.2,2.4v0c0,1.5,1,2.4,2.2,2.4C263.2,458.7,264.4,457.7,264.4,456.3z"/>
		<path class="st1" d="M266.5,457.6L266.5,457.6c0-1.4,1.1-2.1,2.7-2.1c0.8,0,1.4,0.1,1.9,0.3v-0.2c0-1.1-0.7-1.7-1.9-1.7
			c-0.7,0-1.3,0.2-1.9,0.4l-0.3-0.8c0.7-0.3,1.4-0.5,2.3-0.5c0.9,0,1.6,0.2,2,0.7c0.4,0.4,0.7,1,0.7,1.8v3.8h-0.9v-0.9
			c-0.4,0.6-1.1,1.1-2.3,1.1C267.7,459.5,266.5,458.9,266.5,457.6z M271.1,457.1v-0.6c-0.5-0.1-1.1-0.3-1.8-0.3
			c-1.2,0-1.8,0.5-1.8,1.3v0c0,0.8,0.7,1.2,1.6,1.2C270.2,458.8,271.1,458.1,271.1,457.1z"/>
		<path class="st1" d="M273.6,453.1h0.9v1.1c0.4-0.7,1.1-1.2,2.1-1.2c1.5,0,2.4,1,2.4,2.5v3.9h-0.9v-3.7c0-1.2-0.6-1.9-1.7-1.9
			c-1.1,0-1.9,0.8-1.9,2v3.6h-0.9V453.1z"/>
		<path class="st1" d="M280.3,456.3L280.3,456.3c0-1.8,1.4-3.3,3.2-3.3c1.2,0,1.9,0.5,2.5,1.1l-0.6,0.7c-0.5-0.5-1.1-0.9-1.9-0.9
			c-1.3,0-2.2,1.1-2.2,2.4v0c0,1.4,1,2.4,2.3,2.4c0.8,0,1.4-0.4,1.9-0.9l0.6,0.6c-0.6,0.7-1.4,1.2-2.6,1.2
			C281.7,459.5,280.3,458,280.3,456.3z"/>
		<path class="st1" d="M289.8,458.7c0.9,0,1.5-0.4,2-0.9l0.6,0.5c-0.6,0.7-1.4,1.2-2.6,1.2c-1.7,0-3.1-1.3-3.1-3.3
			c0-1.8,1.3-3.3,3-3.3c1.9,0,2.9,1.5,2.9,3.3c0,0.1,0,0.2,0,0.3h-5C287.7,458,288.7,458.7,289.8,458.7z M291.6,455.9
			c-0.1-1.1-0.8-2.1-2-2.1c-1.1,0-1.9,0.9-2,2.1H291.6z"/>
		<path class="st1" d="M296.6,458.6l0.5-0.7c0.7,0.5,1.4,0.8,2.2,0.8c0.8,0,1.3-0.4,1.3-1v0c0-0.6-0.7-0.9-1.6-1.1
			c-1-0.3-2.1-0.6-2.1-1.8v0c0-1.1,0.9-1.8,2.1-1.8c0.8,0,1.6,0.3,2.3,0.7l-0.4,0.7c-0.6-0.4-1.2-0.6-1.9-0.6
			c-0.7,0-1.2,0.4-1.2,0.9v0c0,0.6,0.8,0.8,1.6,1.1c1,0.3,2,0.7,2,1.8v0c0,1.2-1,1.9-2.2,1.9C298.3,459.5,297.3,459.2,296.6,458.6z"
			/>
		<path class="st1" d="M305.5,458.7c0.9,0,1.5-0.4,2-0.9l0.6,0.5c-0.6,0.7-1.4,1.2-2.6,1.2c-1.7,0-3.1-1.3-3.1-3.3
			c0-1.8,1.3-3.3,3-3.3c1.9,0,2.9,1.5,2.9,3.3c0,0.1,0,0.2,0,0.3h-5C303.5,458,304.4,458.7,305.5,458.7z M307.4,455.9
			c-0.1-1.1-0.8-2.1-2-2.1c-1.1,0-1.9,0.9-2,2.1H307.4z"/>
		<path class="st1" d="M309.6,453.1h0.9v1.6c0.5-1,1.4-1.8,2.6-1.7v1H313c-1.4,0-2.5,1-2.5,2.9v2.5h-0.9V453.1z"/>
		<path class="st1" d="M313.5,453.1h1l2.1,5.2l2.1-5.2h1l-2.7,6.3h-0.8L313.5,453.1z"/>
		<path class="st1" d="M320.9,450.7h1.1v1h-1.1V450.7z M320.9,453.1h0.9v6.3h-0.9V453.1z"/>
		<path class="st1" d="M323.3,456.3L323.3,456.3c0-1.8,1.4-3.3,3.2-3.3c1.2,0,1.9,0.5,2.5,1.1l-0.6,0.7c-0.5-0.5-1.1-0.9-1.9-0.9
			c-1.3,0-2.2,1.1-2.2,2.4v0c0,1.4,1,2.4,2.3,2.4c0.8,0,1.4-0.4,1.9-0.9l0.6,0.6c-0.6,0.7-1.4,1.2-2.6,1.2
			C324.7,459.5,323.3,458,323.3,456.3z"/>
		<path class="st1" d="M332.8,458.7c0.9,0,1.5-0.4,2-0.9l0.6,0.5c-0.6,0.7-1.4,1.2-2.6,1.2c-1.7,0-3.1-1.3-3.1-3.3
			c0-1.8,1.3-3.3,3-3.3c1.9,0,2.9,1.5,2.9,3.3c0,0.1,0,0.2,0,0.3h-5C330.7,458,331.7,458.7,332.8,458.7z M334.6,455.9
			c-0.1-1.1-0.8-2.1-2-2.1c-1.1,0-1.9,0.9-2,2.1H334.6z"/>
	</g>
</g>
</svg>
